<mxfile host="app.diagrams.net" agent="Mozilla/5.0 (Windows NT 10.0; Win64; x64) AppleWebKit/537.36 (KHTML, like Gecko) Chrome/134.0.0.0 Safari/537.36" version="26.1.1">
  <diagram name="Page-1" id="Ge_nsT4eN0t_IVglWX80">
    <mxGraphModel dx="1050" dy="557" grid="1" gridSize="10" guides="1" tooltips="1" connect="1" arrows="1" fold="1" page="1" pageScale="1" pageWidth="850" pageHeight="1100" math="0" shadow="0">
      <root>
        <mxCell id="0" />
        <mxCell id="1" parent="0" />
        <mxCell id="pi02sMuNNORtbl3Hp3No-6" value="" style="edgeStyle=orthogonalEdgeStyle;rounded=0;orthogonalLoop=1;jettySize=auto;html=1;" edge="1" parent="1" source="pi02sMuNNORtbl3Hp3No-1" target="pi02sMuNNORtbl3Hp3No-2">
          <mxGeometry relative="1" as="geometry" />
        </mxCell>
        <mxCell id="pi02sMuNNORtbl3Hp3No-7" value="call methods" style="edgeLabel;html=1;align=center;verticalAlign=middle;resizable=0;points=[];" vertex="1" connectable="0" parent="pi02sMuNNORtbl3Hp3No-6">
          <mxGeometry x="-0.64" y="-1" relative="1" as="geometry">
            <mxPoint as="offset" />
          </mxGeometry>
        </mxCell>
        <mxCell id="pi02sMuNNORtbl3Hp3No-1" value="post controller&amp;nbsp;&lt;div&gt;-create post()&lt;/div&gt;&lt;div&gt;-like post()&lt;/div&gt;" style="rounded=0;whiteSpace=wrap;html=1;" vertex="1" parent="1">
          <mxGeometry x="20" y="30" width="120" height="60" as="geometry" />
        </mxCell>
        <mxCell id="pi02sMuNNORtbl3Hp3No-8" value="" style="edgeStyle=orthogonalEdgeStyle;rounded=0;orthogonalLoop=1;jettySize=auto;html=1;" edge="1" parent="1" source="pi02sMuNNORtbl3Hp3No-2" target="pi02sMuNNORtbl3Hp3No-3">
          <mxGeometry relative="1" as="geometry" />
        </mxCell>
        <mxCell id="pi02sMuNNORtbl3Hp3No-9" value="call methods" style="edgeLabel;html=1;align=center;verticalAlign=middle;resizable=0;points=[];" vertex="1" connectable="0" parent="pi02sMuNNORtbl3Hp3No-8">
          <mxGeometry x="0.44" y="2" relative="1" as="geometry">
            <mxPoint as="offset" />
          </mxGeometry>
        </mxCell>
        <mxCell id="pi02sMuNNORtbl3Hp3No-12" style="edgeStyle=orthogonalEdgeStyle;rounded=0;orthogonalLoop=1;jettySize=auto;html=1;" edge="1" parent="1" source="pi02sMuNNORtbl3Hp3No-2">
          <mxGeometry relative="1" as="geometry">
            <mxPoint x="250" y="150" as="targetPoint" />
          </mxGeometry>
        </mxCell>
        <mxCell id="pi02sMuNNORtbl3Hp3No-13" value="caches posts" style="edgeLabel;html=1;align=center;verticalAlign=middle;resizable=0;points=[];" vertex="1" connectable="0" parent="pi02sMuNNORtbl3Hp3No-12">
          <mxGeometry x="-0.0806" y="4" relative="1" as="geometry">
            <mxPoint as="offset" />
          </mxGeometry>
        </mxCell>
        <mxCell id="pi02sMuNNORtbl3Hp3No-2" value="post service&lt;div&gt;-validate posts()&lt;/div&gt;&lt;div&gt;-update likes()&lt;/div&gt;" style="rounded=0;whiteSpace=wrap;html=1;" vertex="1" parent="1">
          <mxGeometry x="20" y="120" width="120" height="60" as="geometry" />
        </mxCell>
        <mxCell id="pi02sMuNNORtbl3Hp3No-10" value="" style="edgeStyle=orthogonalEdgeStyle;rounded=0;orthogonalLoop=1;jettySize=auto;html=1;" edge="1" parent="1" source="pi02sMuNNORtbl3Hp3No-3" target="pi02sMuNNORtbl3Hp3No-5">
          <mxGeometry relative="1" as="geometry" />
        </mxCell>
        <mxCell id="pi02sMuNNORtbl3Hp3No-11" value="reads/write data" style="edgeLabel;html=1;align=center;verticalAlign=middle;resizable=0;points=[];" vertex="1" connectable="0" parent="pi02sMuNNORtbl3Hp3No-10">
          <mxGeometry x="-0.45" y="3" relative="1" as="geometry">
            <mxPoint as="offset" />
          </mxGeometry>
        </mxCell>
        <mxCell id="pi02sMuNNORtbl3Hp3No-3" value="post Repository&lt;div&gt;&lt;span style=&quot;background-color: transparent; color: light-dark(rgb(0, 0, 0), rgb(255, 255, 255));&quot;&gt;-save posts()&lt;/span&gt;&lt;/div&gt;&lt;div&gt;-get posts()&lt;/div&gt;" style="rounded=0;whiteSpace=wrap;html=1;" vertex="1" parent="1">
          <mxGeometry x="20" y="210" width="120" height="60" as="geometry" />
        </mxCell>
        <mxCell id="pi02sMuNNORtbl3Hp3No-4" value="Redis cache" style="rounded=0;whiteSpace=wrap;html=1;" vertex="1" parent="1">
          <mxGeometry x="260" y="120" width="120" height="60" as="geometry" />
        </mxCell>
        <mxCell id="pi02sMuNNORtbl3Hp3No-5" value="Database" style="shape=cylinder3;whiteSpace=wrap;html=1;boundedLbl=1;backgroundOutline=1;size=15;" vertex="1" parent="1">
          <mxGeometry x="50" y="310" width="60" height="80" as="geometry" />
        </mxCell>
      </root>
    </mxGraphModel>
  </diagram>
</mxfile>
